<svg width="511" height="445" viewBox="0 0 511 445" fill="none" xmlns="http://www.w3.org/2000/svg">
<path fill-rule="evenodd" clip-rule="evenodd" d="M130.021 443.713
L184.708 443.772
L217.509 443.398
C218.297 443.384 218.691 442.984 218.691 442.196
C218.691 401.962 218.323 401.456 217.588 401.22
C195.524 394.115 183.165 380.082 180.512 359.121
C174.149 308.866 236.126 284.792 267.882 322.656
C270.968 326.333 273.95 332.69 276.826 341.726
C277.036 342.369 277.483 342.691 278.165 342.691
L440.711 342.809
C441.302 342.809 441.741 342.553 442.03 342.041
L510.705 223.368
C511.099 222.685 511.099 222.008 510.705 221.339
L422.646 68.8209
C422.422 68.4137 422.087 68.2824 421.641 68.4269
C421.437 68.4892 421.239 68.5508 421.046 68.611
C419.713 69.0267 418.605 69.3725 417.09 69.3725
C397.929 69.4119 378.669 69.4119 359.31 69.3725
C358.666 69.3725 358.115 69.6023 357.655 70.062
L305.017 122.681
C304.544 123.154 304.458 123.685 304.76 124.276
C327.159 167.459 284.903 214.306 240.381 192.557
C207.698 176.58 203.345 130.167 233.604 108.91
C251.518 96.3418 270.207 96.0135 289.67 107.925
C290.314 108.306 290.905 108.234 291.443 107.709
L349.48 49.6724
C349.9 49.239 350.419 49.0223 351.036 49.0223
L409.703 48.6677
C410.477 48.6677 410.668 48.3328 410.274 47.663
L384.29 2.23472
C383.974 1.68312 383.495 1.40076 382.851 1.38763
L224.089 0.973887
C223.432 0.960753 223.11 1.28256 223.123 1.93923
L223.774 85.9402
C223.787 86.7807 223.491 87.4965 222.887 88.0875
L128.898 182.076
C128.412 182.562 128.32 183.114 128.622 183.731
C134.966 196.655 136.259 209.138 132.503 221.181
C122.634 252.78 82.9774 267.772 55.8701 245.767
C6.1078 205.382 59.9677 131.881 114.379 166.71
C114.905 167.052 115.384 166.999 115.817 166.553
L202.084 79.6756
C202.649 79.1109 202.931 78.4279 202.931 77.6268
C202.931 1.74219 202.576 1.38763 201.867 1.38763
C179.527 1.47956 157.187 1.48609 134.848 1.40729
C133.907 1.40223 133.077 1.27244 132.323 1.1544
C130.14 0.812792 128.586 0.56953 126.771 3.73194
C100.333 49.8695 73.7052 95.8887 46.8869 141.79
L1.06457 221.398
C0.749374 221.949 0.75596 222.508 1.08429 223.072
L67.9463 338.81
C68.2483 339.335 68.6161 339.381 69.0494 338.948
L184.59 223.427
C185.168 222.849 185.864 222.56 186.678 222.56
H311.695
C312.26 222.56 312.614 222.284 312.759 221.733
C328.755 160.997 417.642 178.038 409.171 239.679
C405.31 267.791 378.616 286.053 350.996 280.655
C333.759 277.287 316.285 262.788 313.251 243.974
C313.12 243.16 312.647 242.753 311.833 242.753
H194.736
C194.079 242.753 193.514 242.989 193.042 243.462
L79.589 357.624
C79.0637 358.149 78.9848 358.733 79.3525 359.377
L127.519 442.275
C127.776 442.712 128.142 443.075 128.581 443.328
C129.02 443.58 129.516 443.713 130.021 443.713
Z
M291.089 149.804
C291.089 165.733 278.177 178.645 262.248 178.645
C246.32 178.645 233.407 165.733 233.407 149.804
C233.407 133.876 246.32 120.964 262.248 120.964
C278.177 120.964 291.089 133.876 291.089 149.804
Z
M85.5197 236.759
C101.448 236.759 114.361 223.846 114.361 207.918
C114.361 191.99 101.448 179.077 85.5197 179.077
C69.5914 179.077 56.6789 191.99 56.6789 207.918
C56.6789 223.846 69.5914 236.759 85.5197 236.759
Z
M389.489 233.757
C389.489 249.664 376.594 262.558 360.688 262.558
C344.781 262.558 331.886 249.664 331.886 233.757
C331.886 217.85 344.781 204.955 360.688 204.955
C376.594 204.955 389.489 217.85 389.489 233.757
Z
M228.914 382.873
C244.831 382.873 257.735 369.97 257.735 354.052
C257.735 338.135 244.831 325.231 228.914 325.231
C212.996 325.231 200.093 338.135 200.093 354.052
C200.093 369.97 212.996 382.873 228.914 382.873
Z
M246.275 444.627
C280.816 444.876 315.35 444.771 349.878 444.311
C353.103 444.267 357.005 444.378 361.202 444.498
C368.052 444.694 375.686 444.912 382.442 444.508
C383.151 444.469 383.683 444.134 384.038 443.504
L429.052 365.413
C429.433 364.743 429.243 364.408 428.481 364.408
H278.327
C277.671 364.408 277.25 364.723 277.25 364.723
C277.066 365.354 271.406 384.397 259.061 396.69
C240.03 402.232 239.269 402.455 238.888 402.968
C238.888 443.478 239.262 443.924 240.011 444.055
C242.204 444.423 244.292 444.614 246.275 444.627
Z
" fill="url(#paint0_linear_1572_323)"/>
<defs>
<linearGradient id="paint0_linear_1572_323" x1="255.917" y1="0.962646" x2="255.917" y2="444.758" gradientUnits="userSpaceOnUse">
<stop stop-color="#FEF9D0"/>
<stop offset="0.661458" stop-color="#DDA323"/>
<stop offset="0.932292" stop-color="#EBB844"/>
<stop offset="1" stop-color="#FDED97" stop-opacity="0.82"/>
</linearGradient>
</defs>
</svg>
