<svg width="247" height="59" viewBox="0 0 247 59" fill="none" xmlns="http://www.w3.org/2000/svg">
<path fill-rule="evenodd" clip-rule="evenodd" d="M24.047 58.235L16.8951 58.2271C16.8291 58.2271 16.7641 58.2097 16.7068 58.1765C16.6494 58.1433 16.6014 58.0956 16.5678 58.0379L10.2687 47.136C10.2206 47.0514 10.2309 46.9744 10.2996 46.9053L25.1368 31.8915C25.1985 31.8295 25.2726 31.7984 25.3584 31.7984H40.6722C40.7786 31.7984 40.8405 31.8519 40.8576 31.959C41.2545 34.4331 43.5397 36.34 45.794 36.783C49.4059 37.493 52.8969 35.0912 53.402 31.3942C54.5097 23.2877 42.8853 21.0466 40.7933 29.0339C40.7743 29.1065 40.7279 29.1428 40.6541 29.1428H24.3046C24.1982 29.1428 24.107 29.1807 24.0315 29.2568L8.92126 44.4492C8.86454 44.5063 8.81648 44.5002 8.77688 44.4312L0.0329123 29.2102C-0.00998772 29.1359 -0.0110191 29.0625 0.0302309 28.9899L6.02282 18.5204C9.5301 12.484 13.0124 6.43187 16.47 0.364165C16.7074 -0.0516865 16.9106 -0.0197463 17.196 0.0252611C17.2948 0.0406093 17.4031 0.0578249 17.5262 0.0584471C20.4477 0.0688175 23.3695 0.0679877 26.291 0.0557507C26.3836 0.0557507 26.43 0.102415 26.43 0.195748V10.0822C26.43 10.1876 26.3931 10.2774 26.3193 10.3517L15.0374 21.7771C14.9809 21.8358 14.9182 21.8429 14.8495 21.7978C7.73347 17.2173 0.68982 26.8837 7.19763 32.1948C10.7427 35.0887 15.929 33.1171 17.2197 28.9615C17.7108 27.3775 17.5417 25.7359 16.7121 24.0364C16.6725 23.9551 16.6847 23.8825 16.7482 23.8186L29.0399 11.458C29.1189 11.3802 29.1577 11.286 29.1558 11.1755L29.0709 0.128338C29.0692 0.0420567 29.1113 -0.000254282 29.1971 0.00140498L49.9598 0.0557507C50.044 0.0576173 50.1067 0.0947421 50.148 0.167335L53.5461 6.1417C53.5977 6.22964 53.5727 6.27382 53.4715 6.27382L45.799 6.32049C45.7183 6.32049 45.6505 6.3489 45.5956 6.40594L38.0056 14.0383C37.9353 14.1076 37.8579 14.1169 37.7738 14.0669C35.2282 12.5004 32.7842 12.5435 30.4414 14.1964C26.4843 16.992 27.0535 23.0958 31.3276 25.1971C37.1503 28.0572 42.6765 21.8964 39.7472 16.2174C39.7078 16.1396 39.7189 16.0697 39.7808 16.0074L46.6648 9.0873C46.7248 9.02695 46.797 8.99667 46.8811 8.99667C49.4129 9.00185 51.9316 9.00185 54.4375 8.99667C54.6355 8.99667 54.7805 8.95125 54.9548 8.89649L54.9721 8.8911C54.9919 8.88488 55.0121 8.87865 55.0328 8.87243C55.0911 8.85335 55.1349 8.87056 55.1642 8.92408L66.6803 28.9822C66.7319 29.0702 66.7319 29.1591 66.6803 29.249L57.6992 44.856C57.6614 44.9234 57.6039 44.957 57.5265 44.957L36.2692 44.9414C36.1799 44.9414 36.1215 44.8991 36.0941 44.8145C35.7179 43.6262 35.3279 42.7902 34.9242 42.3067C30.7712 37.3271 22.666 40.4931 23.4982 47.1022C23.8451 49.8588 25.4615 51.7043 28.3469 52.6387C28.443 52.6698 28.4911 52.7364 28.4911 52.8382V58.0276C28.4911 58.1313 28.4397 58.184 28.3366 58.1856L24.047 58.235ZM34.1875 23.2358C36.2706 23.2358 37.9594 21.5378 37.9594 19.4429C37.9594 17.3481 36.2706 15.6501 34.1875 15.6501C32.1044 15.6501 30.4158 17.3481 30.4158 19.4429C30.4158 21.5378 32.1044 23.2358 34.1875 23.2358ZM14.8468 27.0859C14.8468 29.1805 13.1582 30.8788 11.0751 30.8788C8.992 30.8788 7.30343 29.1805 7.30343 27.0859C7.30343 24.9911 8.992 23.2928 11.0751 23.2928C13.1582 23.2928 14.8468 24.9911 14.8468 27.0859ZM47.0616 34.2724C49.1419 34.2724 50.8282 32.5766 50.8282 30.4847C50.8282 28.3928 49.1419 26.6968 47.0616 26.6968C44.9814 26.6968 43.2949 28.3928 43.2949 30.4847C43.2949 32.5766 44.9814 34.2724 47.0616 34.2724ZM33.5974 46.3043C33.5974 48.3976 31.9099 50.0947 29.8284 50.0947C27.7467 50.0947 26.0592 48.3976 26.0592 46.3043C26.0592 44.2109 27.7467 42.5139 29.8284 42.5139C31.9099 42.5139 33.5974 44.2109 33.5974 46.3043ZM45.6472 58.1755C41.1317 58.236 36.6155 58.2497 32.0982 58.2169C31.8389 58.2153 31.5657 58.1902 31.279 58.1419C31.181 58.1244 31.1321 58.0657 31.1321 57.9656V52.8436C31.1321 52.7383 31.1818 52.6709 31.2814 52.6416C33.7703 51.9126 35.3848 50.296 36.125 47.7916C36.1491 47.7086 36.204 47.6671 36.2898 47.6671H55.9269C56.0265 47.6671 56.0512 47.7113 56.0015 47.7993L50.1145 58.0693C50.0681 58.1522 49.9986 58.1962 49.9058 58.2014C49.0224 58.2545 48.024 58.2256 47.1282 58.1999C46.5796 58.1842 46.0689 58.1696 45.6472 58.1755ZM111.769 19.9791C110.795 21.601 109.991 24.316 113.021 24.3989C113.131 24.4025 113.185 24.4595 113.184 24.5701L113.168 25.2694C113.166 25.3904 113.105 25.4509 112.983 25.4509H105.784C105.704 25.4509 105.645 25.4155 105.609 25.3447C105.227 24.6091 105.629 24.4985 106.096 24.3701C106.166 24.3506 106.239 24.3309 106.31 24.3083C107.647 23.8885 108.641 22.0776 109.208 20.7641C111.532 15.3701 113.566 10.5815 115.309 6.39806C115.783 5.26167 116.107 4.03963 116.28 2.73213C116.292 2.64565 116.341 2.59297 116.427 2.57409L118.401 2.14662C118.438 2.13853 118.477 2.14372 118.51 2.16135C118.544 2.17877 118.571 2.20739 118.586 2.24245C121.303 8.59513 124.02 14.9434 126.735 21.2874C127.392 22.8212 128.085 24.0984 129.894 24.4249C130.011 24.4473 130.066 24.5182 130.061 24.6373L130.03 25.2798C130.025 25.3974 129.964 25.4561 129.847 25.4561L121.026 25.4845C120.902 25.4845 120.843 25.4231 120.848 25.3005L120.869 24.6165C120.872 24.4939 120.935 24.4257 121.057 24.412C123.759 24.1115 122.69 21.5855 121.984 20.0932C121.675 19.4376 121.188 19.3081 120.457 19.3054C118.078 19.2934 115.698 19.2926 113.318 19.3029H113.3L113.236 19.3032C112.54 19.3046 112.174 19.3052 111.769 19.9791ZM112.872 17.2328C112.867 17.2455 112.865 17.2592 112.866 17.2728C112.868 17.2863 112.872 17.2994 112.88 17.3106C112.888 17.322 112.898 17.3311 112.91 17.3373C112.922 17.3438 112.936 17.3469 112.949 17.3469L120.709 17.3624C120.723 17.3622 120.736 17.3587 120.748 17.3521C120.76 17.3454 120.77 17.3359 120.778 17.3243C120.785 17.3129 120.79 17.2996 120.791 17.2859C120.792 17.2722 120.789 17.2583 120.784 17.2457L116.922 7.88517C116.916 7.87024 116.905 7.85738 116.891 7.84825C116.878 7.83933 116.862 7.83436 116.846 7.83436C116.83 7.83436 116.814 7.83933 116.8 7.84825C116.787 7.85738 116.776 7.87024 116.77 7.88517L112.872 17.2328ZM209.87 4.91095C204.398 4.9991 202.781 9.69895 203.328 14.3596C203.753 17.9791 205.844 20.8135 209.132 22.272C212.224 23.6425 215.53 23.2047 218.566 21.588C218.675 21.5311 218.764 21.5527 218.834 21.6529L219.195 22.1631C219.253 22.2427 219.257 22.3247 219.207 22.4093C218.374 23.9327 215.557 25.3007 213.999 25.85C210.687 27.0131 206.255 25.425 203.613 23.3835C198.526 19.4533 198.432 11.4009 202.315 6.58722C205.05 3.19341 209.452 1.97053 213.717 2.41086C215.519 2.59483 217.157 2.83833 218.487 3.82289C219.123 4.29184 218.234 8.0511 216.53 7.04331C214.397 5.78414 212.574 4.86968 209.87 4.91095ZM174.459 2.28144C171.687 2.54236 168.911 2.62615 166.133 2.53282C164.654 2.48594 163.194 2.49071 161.736 2.49528C159.331 2.50316 156.932 2.51083 154.478 2.28662C154.41 2.28102 154.344 2.30072 154.288 2.34179C154.234 2.38306 154.199 2.4428 154.187 2.50959L153.335 7.04081C153.31 7.17376 153.364 7.23951 153.5 7.23764L154.212 7.22479C154.315 7.22313 154.389 7.17459 154.436 7.0796C155.697 4.52517 159.184 4.43184 161.595 4.76618C161.688 4.77821 161.756 4.82487 161.802 4.90597C161.94 5.15818 162.01 5.46472 162.01 5.82582V21.2696C162.01 23.8448 160.541 24.0712 158.462 24.3921C158.398 24.4021 158.332 24.4122 158.266 24.4226C158.151 24.4398 158.108 24.5053 158.132 24.6194L158.295 25.3215C158.322 25.4356 158.394 25.4926 158.512 25.4926L169.633 25.4484C169.744 25.4484 169.804 25.3941 169.814 25.2852L169.885 24.5779C169.895 24.4778 169.849 24.4207 169.753 24.407C167.572 24.0961 166.071 23.8811 166.069 21.2721C166.067 16.0852 166.077 10.8986 166.102 5.71175C166.106 4.46855 167.702 4.58366 168.777 4.66123L168.816 4.66413C168.845 4.66621 168.874 4.66828 168.903 4.67015C170.598 4.6884 172.374 5.14428 172.98 6.95018C173.009 7.0348 173.063 7.09868 173.139 7.14182C173.638 7.41643 173.946 7.09785 174.047 6.59261C174.3 5.30419 174.632 4.03112 175.045 2.77382C175.063 2.71554 175.053 2.64233 175.014 2.56496C174.975 2.4876 174.911 2.41003 174.828 2.34366C174.756 2.28662 174.632 2.26588 174.459 2.28144ZM181.952 25.3993C180.352 25.3474 178.741 25.4026 177.118 25.565C177.017 25.5754 176.957 25.5295 176.94 25.4277L176.81 24.6505C176.79 24.5226 176.841 24.4423 176.965 24.4095C179.351 23.7541 180.457 23.1867 180.385 20.3574C180.296 16.9169 180.286 13.4762 180.356 10.0358C180.364 9.84849 180.376 9.65477 180.387 9.45649C180.515 7.11548 180.68 4.14458 177.615 3.69077C177.508 3.67522 177.458 3.61216 177.47 3.50161L177.561 2.69604C177.574 2.57678 177.637 2.52058 177.757 2.52763C182.61 2.76594 188.012 2.7452 193.96 2.46541C194.554 2.43782 194.785 2.7591 194.655 3.42923C194.434 4.56043 194.154 5.71341 193.818 6.88795C193.795 6.9676 193.752 7.04061 193.694 7.10034C193.636 7.15987 193.564 7.20446 193.486 7.22997C193.145 7.33865 192.921 7.16505 192.801 6.83859C192.292 5.44481 191.266 4.66766 189.722 4.50692C189.639 4.49842 189.55 4.48866 189.458 4.4785C187.74 4.29121 184.258 3.91166 184.231 6.39308C184.229 6.65317 184.215 7.01945 184.198 7.44754V7.44858C184.134 9.20822 184.029 12.0151 184.497 12.8233C184.539 12.8995 184.605 12.9409 184.693 12.9478C187.537 13.2147 190.388 12.9606 192.609 11.3829C192.646 11.3561 192.69 11.3393 192.735 11.3341C192.782 11.329 192.828 11.3356 192.871 11.3534C192.912 11.3713 192.949 11.3999 192.978 11.4362C193.007 11.4727 193.028 11.5158 193.034 11.5617C193.129 12.1283 191.937 14.5083 191.357 15.6636C191.26 15.8556 191.182 16.0137 191.128 16.124C190.774 16.8518 190.206 16.3011 189.722 15.8301C189.528 15.6403 189.346 15.4634 189.196 15.3883C188.428 15.0024 184.322 13.7121 184.277 15.492C184.225 17.5008 184.217 19.5095 184.256 21.5181C184.297 23.7023 186.892 23.8421 188.482 23.7023C191.172 23.4689 193.591 22.7409 195.231 20.4482C195.639 19.8704 196.534 19.9922 196.443 20.7824C196.2 22.956 195.008 25.6428 192.442 25.4872C188.956 25.2784 185.461 25.2489 181.952 25.3993ZM89.2478 2.51394C89.1133 2.51353 88.978 2.5129 88.8423 2.51207C88.6078 2.52078 88.3749 2.52991 88.1433 2.53883L88.1413 2.53904H88.1404H88.1402C85.6471 2.63569 83.3037 2.72653 80.7963 2.47059C80.3978 2.42911 80.1478 2.68401 80.0466 3.23489C79.9933 3.52339 80.1093 3.69181 80.3943 3.74013C82.0878 4.03548 82.9339 5.13993 82.932 7.05367C82.9304 11.9504 82.9219 16.8462 82.9064 21.741C82.899 23.5536 81.809 23.9155 80.3811 24.3894C80.3151 24.4114 80.2481 24.4336 80.1806 24.4562C80.0946 24.4856 80.0577 24.546 80.0699 24.6375L80.1573 25.2983C80.1712 25.4001 80.2295 25.4511 80.3326 25.4511H90.2953C90.4034 25.4511 90.4645 25.3966 90.4783 25.2879L90.5709 24.5858C90.5831 24.4873 90.541 24.4303 90.4447 24.4147C88.1879 24.065 86.8765 23.7773 86.8508 21.1167C86.8318 19.1683 86.8336 17.2218 86.8559 15.277C86.8576 15.1907 86.9015 15.144 86.9873 15.1372C90.3028 14.8626 91.4477 16.337 93.4493 18.9153L93.4497 18.9159C93.5632 19.0621 93.6795 19.2121 93.7991 19.3652C94.7782 20.6192 95.7632 21.8688 96.7543 23.1141C98.3772 25.1583 99.8226 26.1013 102.394 25.9925L103.942 25.6455C104.061 25.6177 104.126 25.5434 104.138 25.4225L104.182 24.9587C104.192 24.8552 104.147 24.793 104.045 24.7723C102.982 24.5599 102.04 23.9397 101.219 22.912C99.4104 20.6511 97.5906 18.3997 95.7597 16.1578C94.9972 15.227 94.1221 14.7026 93.1344 14.5853C92.7446 14.5402 92.7429 14.4807 93.1292 14.4065C95.4866 13.9531 97.4704 12.7845 98.2407 10.4504C98.9956 8.16786 98.3077 5.40852 96.2904 4.02781C94.1101 2.53406 91.7929 2.52452 89.2478 2.51394ZM86.8479 7.49649V7.49628V7.49607V7.49027C86.8505 7.00597 86.8532 6.52209 86.8559 6.03821C86.8635 4.42416 88.8268 4.15204 89.999 4.29972C92.6218 4.62783 94.0877 6.16597 94.3968 8.91391C94.9353 13.7276 90.1382 13.694 86.9564 13.5074C86.8706 13.5022 86.8274 13.4557 86.8274 13.3676C86.8254 11.4109 86.8365 9.45255 86.8479 7.49649ZM139.151 21.6114C139.153 24.7283 145.11 23.6141 146.63 23.0649C148.113 22.5277 149.317 21.6201 150.243 20.3421C150.402 20.1243 150.619 20.0363 150.893 20.0778C151.029 20.0984 151.151 20.1693 151.235 20.2765C151.322 20.3837 151.363 20.519 151.353 20.6554C151.2 22.6789 149.94 25.6168 147.475 25.4926C142.315 25.2317 137.157 25.2421 132.001 25.5235C131.891 25.5306 131.829 25.4787 131.815 25.3682L131.726 24.6115C131.712 24.4925 131.763 24.4182 131.877 24.3888C133.696 23.9173 135.206 23.3681 135.212 21.3057C135.218 16.4903 135.218 11.6749 135.214 6.85954C135.212 4.96135 134.315 3.9129 132.524 3.71421C132.405 3.70031 132.349 3.63311 132.361 3.51219L132.442 2.76345C132.456 2.64585 132.52 2.58716 132.638 2.58716H141.616C141.75 2.58716 141.822 2.65373 141.83 2.78668L141.878 3.53293C141.884 3.63311 141.837 3.68994 141.74 3.70384C139.067 4.06825 139.087 5.77687 139.116 8.07515C139.118 8.27696 139.12 8.48333 139.122 8.69364C139.139 13.0013 139.149 17.3073 139.151 21.6114ZM230.737 13.2406C230.159 13.2614 229.689 13.1828 229.33 13.0048C229.21 12.9451 229.109 12.8526 229.037 12.7381C228.967 12.6236 228.93 12.4915 228.932 12.3573C228.932 10.6715 228.932 8.99688 228.928 7.33368C228.926 5.26624 229.369 3.88781 231.597 3.73246C231.714 3.72375 231.766 3.66153 231.749 3.54579L231.634 2.75059C231.617 2.64004 231.555 2.58467 231.442 2.58467C228.625 2.59151 225.799 2.59151 222.969 2.58467C222.258 2.58218 222.039 2.97065 222.276 3.62357C222.303 3.69616 222.357 3.73682 222.433 3.74532C224.068 3.92162 224.922 4.82923 224.995 6.46837C225.153 10.0291 225.1 13.5325 225.048 17.0152C225.03 18.2688 225.011 19.5197 225.003 20.7695C224.986 22.9483 224.728 23.9717 222.367 24.3967C222.266 24.4158 222.216 24.4761 222.223 24.5779L222.258 25.275C222.264 25.3924 222.324 25.4511 222.441 25.4511H231.481C231.59 25.4511 231.65 25.396 231.658 25.2854L231.716 24.6194C231.727 24.4985 231.671 24.4303 231.549 24.4147C229.827 24.2075 228.961 23.2144 228.946 21.4353C228.932 19.6062 228.928 17.771 228.932 15.9299C228.932 15.7816 228.985 15.6387 229.084 15.5279C229.183 15.4174 229.318 15.3464 229.464 15.3288C231.347 15.1044 233.358 15.1421 235.33 15.1791C236.227 15.1959 237.114 15.2127 237.978 15.2046C238.188 15.2025 238.405 15.1797 238.617 15.1575C239.498 15.0648 240.302 14.98 240.261 16.4275C240.22 17.8333 240.197 19.2418 240.189 20.653C240.181 22.7411 239.989 23.9561 237.796 24.3475C237.528 24.3958 237.403 24.5555 237.419 24.8268L237.454 25.3138C237.458 25.4053 237.506 25.4511 237.598 25.4511H246.628C246.754 25.4511 246.826 25.3872 246.843 25.2595L246.917 24.5806C246.929 24.4701 246.882 24.4114 246.77 24.4045C244.454 24.2697 244.097 22.6167 244.085 20.6554C244.056 16.0319 244.058 11.4047 244.093 6.77409C244.106 4.98375 244.935 3.86707 246.772 3.71172C246.896 3.70135 246.948 3.63394 246.927 3.5097L246.801 2.72467C246.785 2.63299 246.731 2.58736 246.64 2.58736H237.664C237.561 2.58736 237.502 2.63901 237.485 2.74271L237.361 3.54331C237.343 3.65385 237.39 3.71338 237.499 3.72209C239.939 3.9268 240.181 5.45788 240.21 7.65744C240.23 9.07217 240.253 10.4867 240.278 11.9012C240.302 13.3468 239.286 13.3962 238.118 13.2589C236.095 13.0181 233.944 13.1083 231.871 13.1952C231.489 13.2112 231.112 13.2269 230.737 13.2406ZM84.2757 52.0455C84.326 53.0214 84.4459 55.341 83.0094 54.8408C82.1736 54.551 82.2757 53.0054 82.3561 51.7898L82.3597 51.7359C82.3613 51.711 82.363 51.6863 82.3644 51.6616C82.3673 51.6172 82.3702 51.5733 82.3729 51.5299C82.3799 51.4158 82.3265 51.3588 82.2132 51.3588L80.165 51.3563C80.0911 51.3563 80.055 51.3934 80.0569 51.4677C80.0592 51.6919 80.0587 51.9149 80.0585 52.1355C80.0556 53.8288 80.0532 55.3864 81.2909 56.372C83.4551 58.0923 86.3688 56.6286 86.5183 53.8848C86.5422 53.4134 86.5397 52.4496 86.5104 50.9936C86.5088 50.9071 86.483 50.8295 86.4333 50.7604C85.2018 49.0574 83.9711 47.3533 82.7412 45.6487C82.5077 45.3239 82.3772 44.9845 82.3498 44.6305C82.3007 44.0114 82.1978 42.2134 82.9939 42.0398C84.4601 41.7187 84.3448 43.6982 84.2778 44.8495C84.2675 45.0271 84.2582 45.1851 84.2561 45.3118C84.2545 45.4139 84.3044 45.4647 84.4057 45.4647H86.3894C86.4942 45.4647 86.5457 45.412 86.5441 45.3066C86.5377 45.0503 86.5379 44.7894 86.5379 44.527C86.5387 42.853 86.5393 41.1172 84.8823 40.125C84.2211 39.7295 83.5004 39.6148 82.7208 39.7805C79.9236 40.3776 80.0068 43.0729 80.0771 45.3579V45.3618V45.362C80.0818 45.5149 80.0866 45.6661 80.0903 45.8146C80.0919 45.8957 80.1169 45.9691 80.165 46.0347L84.1738 51.5168C84.2304 51.5946 84.2605 51.6828 84.264 51.7811C84.2656 51.8499 84.2704 51.94 84.2757 52.0455ZM180.174 56.9526V54.8851C180.174 54.881 180.174 54.877 180.172 54.8729C180.172 54.8631 180.17 54.8536 180.166 54.8445C180.16 54.8316 180.152 54.8198 180.143 54.8101C180.133 54.8001 180.121 54.7922 180.108 54.787C180.096 54.7816 180.082 54.7789 180.067 54.7789L176.994 54.8152C176.967 54.8152 176.94 54.804 176.92 54.7841C176.899 54.7642 176.889 54.737 176.889 54.709L176.891 40.0657C176.891 40.0518 176.889 40.0379 176.883 40.025C176.878 40.0122 176.87 40.0005 176.86 39.9906C176.85 39.9808 176.839 39.973 176.827 39.9676C176.812 39.9622 176.8 39.9595 176.786 39.9595H174.804C174.791 39.9595 174.777 39.9622 174.764 39.9676C174.752 39.973 174.74 39.9808 174.729 39.9906C174.719 40.0005 174.713 40.0122 174.707 40.025C174.703 40.0379 174.698 40.0518 174.698 40.0657V56.9526C174.698 56.9808 174.711 57.0078 174.729 57.0277C174.75 57.0476 174.777 57.0588 174.804 57.0588H180.067C180.096 57.0588 180.123 57.0476 180.143 57.0277C180.162 57.0078 180.174 56.9808 180.174 56.9526ZM120.163 57.0277L118.027 56.9941C117.931 56.9924 117.883 56.9422 117.883 56.8437L117.901 54.4033L117.914 40.141C117.914 40.0632 117.952 40.0242 118.03 40.0242H120.016C120.102 40.0242 120.145 40.0675 120.145 40.1538V45.724C120.145 45.8104 120.188 45.8536 120.274 45.8536H122.046C122.111 45.8536 122.144 45.8208 122.144 45.7551L122.172 40.1694C122.172 40.0727 122.221 40.0242 122.319 40.0242H124.267C124.353 40.0242 124.396 40.0675 124.396 40.1538V56.8644C124.396 56.9509 124.353 56.9941 124.267 56.9941H122.293C122.221 56.9941 122.185 56.9586 122.185 56.8879L122.167 48.1983C122.167 48.1033 122.12 48.0558 122.025 48.0558H120.286C120.201 48.0558 120.158 48.099 120.158 48.1853L120.163 57.0277ZM142.449 56.0307C143.018 55.452 143.336 54.6692 143.332 53.8552L143.276 43.1345C143.274 42.7313 143.192 42.3324 143.037 41.9608C142.882 41.5891 142.655 41.2518 142.371 40.9683C142.086 40.6848 141.748 40.4604 141.377 40.3081C141.005 40.1557 140.607 40.0783 140.207 40.0804L139.96 40.0819C139.149 40.086 138.376 40.4137 137.804 40.9924C137.235 41.571 136.918 42.3538 136.922 43.1679L136.977 53.8885C136.979 54.2917 137.062 54.6906 137.217 55.0623C137.371 55.4339 137.598 55.7712 137.883 56.0547C138.169 56.3382 138.506 56.5627 138.877 56.7149C139.248 56.8673 139.646 56.9447 140.046 56.9426L140.294 56.9412C141.104 56.937 141.88 56.6093 142.449 56.0307ZM140.774 42.594C140.925 42.7466 141.012 42.9536 141.012 43.1693V53.8952C141.012 54.1109 140.925 54.3179 140.774 54.4705C140.622 54.623 140.416 54.7086 140.201 54.7086H140.057C139.842 54.7086 139.638 54.623 139.485 54.4705C139.333 54.3179 139.248 54.1109 139.248 53.8952V43.1693C139.248 42.9536 139.333 42.7466 139.485 42.594C139.638 42.4415 139.842 42.3557 140.057 42.3557H140.201C140.416 42.3557 140.622 42.4415 140.774 42.594ZM162.121 53.9213C162.121 54.7252 161.804 55.4962 161.239 56.0647C160.673 56.6332 159.906 56.9526 159.106 56.9526H158.875C158.075 56.9526 157.309 56.6332 156.744 56.0647C156.177 55.4962 155.862 54.7252 155.862 53.9213V43.1021C155.862 42.2982 156.177 41.5271 156.744 40.9586C157.309 40.3903 158.075 40.0709 158.875 40.0709H159.106C159.906 40.0709 160.673 40.3903 161.239 40.9586C161.804 41.5271 162.121 42.2982 162.121 43.1021V53.9213ZM159.947 43.1979C159.947 42.9725 159.857 42.7564 159.7 42.5971C159.541 42.4376 159.327 42.3482 159.102 42.3482H158.926C158.702 42.3482 158.487 42.4376 158.328 42.5971C158.17 42.7564 158.081 42.9725 158.081 43.1979V53.8616C158.081 54.087 158.17 54.3032 158.328 54.4627C158.487 54.6219 158.702 54.7115 158.926 54.7115H159.102C159.327 54.7115 159.541 54.6219 159.7 54.4627C159.857 54.3032 159.947 54.087 159.947 53.8616V43.1979ZM101.343 43.0841C101.348 42.9264 101.414 42.7773 101.528 42.6695C101.987 42.236 102.42 42.204 102.827 42.5736C103.206 42.9204 103.176 43.4219 103.148 43.9015C103.144 43.9558 103.141 44.0099 103.138 44.0634C103.133 44.1445 103.171 44.1844 103.252 44.1825L105.266 44.1645C105.34 44.1628 105.38 44.1246 105.385 44.0504C105.684 38.9776 99.0756 38.9465 99.0781 43.3923L99.0832 52.6597C99.0832 54.411 99.2431 55.7816 100.82 56.5485C101.785 57.0165 102.737 57.0104 103.674 56.5303C105.192 55.7531 105.457 54.0845 105.395 52.3927C105.392 52.3116 105.35 52.2701 105.269 52.2685L103.298 52.2581C103.2 52.2581 103.15 52.3064 103.146 52.4031C103.142 52.5242 103.146 52.6698 103.151 52.8281C103.174 53.5911 103.206 54.6535 102.304 54.735C101.52 54.8074 101.348 54.126 101.33 53.4551C101.237 50.0059 101.241 46.5488 101.343 43.0841Z" fill="url(#paint0_linear_1679_5)"/>
<defs>
<linearGradient id="paint0_linear_1679_5" x1="123.465" y1="-4.2459e-05" x2="123.465" y2="58.235" gradientUnits="userSpaceOnUse">
<stop stop-color="#FEF9D0"/>
<stop offset="0.661458" stop-color="#DDA323"/>
<stop offset="0.932292" stop-color="#EBB844"/>
<stop offset="1" stop-color="#FDED97" stop-opacity="0.82"/>
</linearGradient>
</defs>
</svg>
